<svg xmlns="http://www.w3.org/2000/svg" width="375" viewBox="0 0 375 375" height="375" version="1.0"><defs><clipPath id="a"><path d="M 165 122 L 242.523438 122 L 242.523438 220 L 165 220 Z M 165 122"/></clipPath><clipPath id="b"><path d="M 132.335938 108 L 210 108 L 210 206 L 132.335938 206 Z M 132.335938 108"/></clipPath></defs><g clip-path="url(#a)"><path fill="#4B4998" d="M 242.527344 194.015625 L 242.527344 128.558594 C 242.527344 123.515625 236.925781 120.507812 232.746094 123.304688 L 209.773438 138.667969 L 225.300781 149.050781 L 225.300781 193.171875 C 225.300781 199.894531 217.832031 203.902344 212.257812 200.175781 L 180.558594 178.976562 L 165.027344 189.363281 L 203.398438 215.023438 C 220.125 226.207031 242.527344 214.179688 242.527344 194.015625 Z M 242.527344 194.015625"/></g><g clip-path="url(#b)"><path fill="#FDC309" d="M 149.5 178.976562 L 149.5 134.855469 C 149.5 128.136719 156.96875 124.125 162.542969 127.851562 L 194.246094 149.050781 L 209.773438 138.667969 L 171.402344 113.007812 C 154.675781 101.824219 132.273438 113.847656 132.273438 134.011719 L 132.273438 199.472656 C 132.273438 204.511719 137.871094 207.519531 142.054688 204.722656 L 165.027344 189.359375 Z M 149.5 178.976562"/></g><path fill="#E61A5A" d="M 180.558594 178.976562 L 225.300781 149.054688 L 209.773438 138.667969 L 194.242188 149.050781 L 194.242188 149.054688 L 149.5 178.976562 L 165.027344 189.363281 Z M 180.558594 178.976562"/><g fill="#4B4998"><g><g><path d="M 12.9375 0.300781 C 17.398438 0.300781 21.261719 -2.210938 23.175781 -5.886719 L 18.898438 -8.101562 C 17.8125 -5.960938 15.601562 -4.539062 12.9375 -4.539062 C 9.148438 -4.539062 6.261719 -7.460938 6.261719 -11.25 C 6.261719 -15.039062 9.148438 -17.960938 12.9375 -17.960938 C 15.601562 -17.960938 17.8125 -16.539062 18.898438 -14.398438 L 23.175781 -16.613281 C 21.261719 -20.289062 17.398438 -22.800781 12.9375 -22.800781 C 6.5625 -22.800781 1.386719 -17.625 1.386719 -11.25 C 1.386719 -4.875 6.5625 0.300781 12.9375 0.300781 Z M 12.9375 0.300781" transform="translate(77.477 254.839)"/></g></g></g><g fill="#4B4998"><g><g><path d="M 9.523438 0.300781 C 14.550781 0.300781 17.851562 -3 17.851562 -7.5 C 17.851562 -12 14.550781 -15.300781 9.523438 -15.300781 C 4.5 -15.300781 1.164062 -12 1.164062 -7.5 C 1.164062 -3 4.5 0.300781 9.523438 0.300781 Z M 9.523438 -3.9375 C 7.460938 -3.976562 5.960938 -5.476562 5.960938 -7.5 C 5.960938 -9.523438 7.460938 -11.023438 9.523438 -11.0625 C 11.550781 -11.023438 13.085938 -9.523438 13.085938 -7.5 C 13.085938 -5.476562 11.550781 -3.976562 9.523438 -3.9375 Z M 9.523438 -3.9375" transform="translate(101.026 254.839)"/></g></g></g><g fill="#4B4998"><g><g><path d="M 11.289062 -15.300781 C 9.5625 -15.300781 8.0625 -14.476562 7.011719 -13.164062 L 7.011719 -15 L 2.210938 -15 L 2.210938 0 L 7.011719 0 L 7.011719 -8.699219 C 7.011719 -10.050781 8.136719 -11.0625 9.523438 -11.0625 C 10.914062 -11.0625 11.886719 -10.050781 11.886719 -8.699219 L 11.886719 0 L 16.648438 0 L 16.648438 -9.488281 C 16.648438 -12.789062 14.25 -15.300781 11.289062 -15.300781 Z M 11.289062 -15.300781" transform="translate(119.476 254.839)"/></g></g></g><g fill="#4B4998"><g><g><path d="M 11.289062 -15.300781 C 9.5625 -15.300781 8.0625 -14.476562 7.011719 -13.164062 L 7.011719 -15 L 2.210938 -15 L 2.210938 0 L 7.011719 0 L 7.011719 -8.699219 C 7.011719 -10.050781 8.136719 -11.0625 9.523438 -11.0625 C 10.914062 -11.0625 11.886719 -10.050781 11.886719 -8.699219 L 11.886719 0 L 16.648438 0 L 16.648438 -9.488281 C 16.648438 -12.789062 14.25 -15.300781 11.289062 -15.300781 Z M 11.289062 -15.300781" transform="translate(137.439 254.839)"/></g></g></g><g fill="#4B4998"><g><g><path d="M 17.476562 -7.539062 C 17.476562 -12.226562 14.25 -15.335938 9.414062 -15.335938 C 4.574219 -15.335938 1.164062 -12.1875 1.164062 -7.5 C 1.164062 -2.8125 4.539062 0.300781 9.5625 0.300781 C 13.726562 0.300781 16.5 -1.914062 17.25 -5.175781 L 12.636719 -5.175781 C 12.226562 -3.976562 11.136719 -3.261719 9.488281 -3.261719 C 7.3125 -3.261719 6.1875 -4.574219 6 -6.710938 L 17.476562 -6.710938 Z M 9.488281 -11.664062 C 11.101562 -11.664062 12.039062 -10.914062 12.523438 -9.601562 L 6.300781 -9.601562 C 6.789062 -10.875 7.800781 -11.664062 9.488281 -11.664062 Z M 9.488281 -11.664062" transform="translate(155.401 254.839)"/></g></g></g><g fill="#4B4998"><g><g><path d="M 9.523438 0.300781 C 14.023438 0.300781 17.101562 -2.324219 17.738281 -6.074219 L 12.789062 -6.074219 C 12.300781 -4.800781 11.0625 -3.976562 9.523438 -3.9375 C 7.460938 -3.976562 5.960938 -5.476562 5.960938 -7.5 C 5.960938 -9.523438 7.460938 -11.023438 9.523438 -11.0625 C 11.0625 -11.023438 12.300781 -10.199219 12.789062 -8.925781 L 17.738281 -8.925781 C 17.101562 -12.675781 14.023438 -15.300781 9.523438 -15.300781 C 4.5 -15.300781 1.164062 -12 1.164062 -7.5 C 1.164062 -3 4.5 0.300781 9.523438 0.300781 Z M 9.523438 0.300781" transform="translate(173.401 254.839)"/></g></g></g><g fill="#4B4998"><g><g><path d="M 11.25 -11.289062 L 11.25 -15 L 7.6875 -15 L 7.6875 -20.773438 L 2.925781 -20.773438 L 2.925781 -15 L 0.414062 -15 L 0.414062 -11.289062 L 2.925781 -11.289062 L 2.925781 -5.363281 C 2.925781 -2.175781 5.625 0.300781 8.8125 0.300781 C 9.824219 0.300781 10.835938 0.0742188 11.210938 -0.1875 L 11.210938 -3.898438 L 9.414062 -3.898438 C 8.398438 -3.898438 7.6875 -4.6875 7.6875 -5.925781 L 7.6875 -11.289062 Z M 11.25 -11.289062" transform="translate(191.401 254.839)"/></g></g></g><g fill="#4B4998"><g><g><path d="M 17.476562 -7.539062 C 17.476562 -12.226562 14.25 -15.335938 9.414062 -15.335938 C 4.574219 -15.335938 1.164062 -12.1875 1.164062 -7.5 C 1.164062 -2.8125 4.539062 0.300781 9.5625 0.300781 C 13.726562 0.300781 16.5 -1.914062 17.25 -5.175781 L 12.636719 -5.175781 C 12.226562 -3.976562 11.136719 -3.261719 9.488281 -3.261719 C 7.3125 -3.261719 6.1875 -4.574219 6 -6.710938 L 17.476562 -6.710938 Z M 9.488281 -11.664062 C 11.101562 -11.664062 12.039062 -10.914062 12.523438 -9.601562 L 6.300781 -9.601562 C 6.789062 -10.875 7.800781 -11.664062 9.488281 -11.664062 Z M 9.488281 -11.664062" transform="translate(202.801 254.839)"/></g></g></g><g fill="#4B4998"><g><g><path d="M 12.863281 -25.6875 L 12.863281 -13.6875 C 11.738281 -14.699219 10.3125 -15.300781 8.585938 -15.300781 C 4.425781 -15.300781 1.164062 -11.851562 1.164062 -7.5 C 1.164062 -3.148438 4.425781 0.300781 8.585938 0.300781 C 10.3125 0.300781 11.738281 -0.300781 12.863281 -1.3125 L 12.863281 0.0390625 L 17.625 0 L 17.625 -25.6875 Z M 9.523438 -3.9375 C 7.539062 -3.9375 5.960938 -5.511719 5.960938 -7.5 C 5.960938 -9.488281 7.539062 -11.0625 9.523438 -11.0625 C 11.476562 -11.0625 13.085938 -9.488281 13.085938 -7.5 C 13.085938 -5.511719 11.476562 -3.9375 9.523438 -3.9375 Z M 9.523438 -3.9375" transform="translate(220.801 254.839)"/></g></g></g><g fill="#4B4998"><g><g><path d="M 5.0625 0.300781 C 6.5625 0.300781 7.835938 -0.9375 7.835938 -2.4375 C 7.835938 -3.9375 6.5625 -5.175781 5.0625 -5.175781 C 3.601562 -5.175781 2.363281 -3.9375 2.363281 -2.4375 C 2.363281 -0.9375 3.601562 0.300781 5.0625 0.300781 Z M 5.0625 0.300781" transform="translate(240.039 254.839)"/></g></g></g><g fill="#4B4998"><g><g><path d="M 17.476562 -7.539062 C 17.476562 -12.226562 14.25 -15.335938 9.414062 -15.335938 C 4.574219 -15.335938 1.164062 -12.1875 1.164062 -7.5 C 1.164062 -2.8125 4.539062 0.300781 9.5625 0.300781 C 13.726562 0.300781 16.5 -1.914062 17.25 -5.175781 L 12.636719 -5.175781 C 12.226562 -3.976562 11.136719 -3.261719 9.488281 -3.261719 C 7.3125 -3.261719 6.1875 -4.574219 6 -6.710938 L 17.476562 -6.710938 Z M 9.488281 -11.664062 C 11.101562 -11.664062 12.039062 -10.914062 12.523438 -9.601562 L 6.300781 -9.601562 C 6.789062 -10.875 7.800781 -11.664062 9.488281 -11.664062 Z M 9.488281 -11.664062" transform="translate(249.601 254.839)"/></g></g></g><g fill="#4B4998"><g><g><path d="M 11.25 -11.289062 L 11.25 -15 L 7.6875 -15 L 7.6875 -20.773438 L 2.925781 -20.773438 L 2.925781 -15 L 0.414062 -15 L 0.414062 -11.289062 L 2.925781 -11.289062 L 2.925781 -5.363281 C 2.925781 -2.175781 5.625 0.300781 8.8125 0.300781 C 9.824219 0.300781 10.835938 0.0742188 11.210938 -0.1875 L 11.210938 -3.898438 L 9.414062 -3.898438 C 8.398438 -3.898438 7.6875 -4.6875 7.6875 -5.925781 L 7.6875 -11.289062 Z M 11.25 -11.289062" transform="translate(267.601 254.839)"/></g></g></g><g fill="#4B4998"><g><g><path d="M 11.210938 -15.300781 C 9.5625 -15.300781 8.0625 -14.550781 7.011719 -13.3125 L 7.011719 -25.6875 L 2.210938 -25.6875 L 2.210938 0 L 7.011719 0 L 7.011719 -8.476562 C 7.011719 -9.789062 8.101562 -11.0625 9.5625 -11.0625 C 10.914062 -11.0625 11.851562 -10.011719 11.851562 -8.699219 L 11.851562 0 L 16.648438 0 L 16.648438 -9.488281 C 16.648438 -12.789062 14.25 -15.300781 11.210938 -15.300781 Z M 11.210938 -15.300781" transform="translate(279.001 254.839)"/></g></g></g></svg>